,
.   http://www.scenetime.com/signup.php  ---&gt;  Hottest scene tracker on the net !!! 
Scenetime lucky draw is started , join now and be the winner . offer is limited 

    Join Now   http://www.scenetime.com/signup.php

    seed back for speed


 



...................................NFO:.................................................








































          
          
              
              
                    
                    
                    
                    

Filthy.McNastiest.2005.DVDRip.x264.AC3-SiC

Poster:
[img]http://img811.imageshack.us/img811/251/mv5bmtc5nzg1odm1of5bml5.jpg[/img]

IMDB Link: 
http://www.imdb.com/title/tt0457656/

Description:
The Female Of The Species Is The Deadliest Of All

General
Complete name                    : Filthy.McNastiest.2005.DVDRip.x264.AC3-SiC.mkv
Format                           : Matroska
Format version                   : Version 2
File size                        : 979 MiB
Duration                         : 57mn 13s
Overall bit rate                 : 2 392 Kbps
Writing application              : HandBrake 0.9.5
Writing library                  : libmkv 0.6.4.1

Video
ID                               : 1
Format                           : AVC
Format/Info                      : Advanced Video Codec
Format profile                   : High@L3.0
Format settings, CABAC           : Yes
Format settings, ReFrames        : 4 frames
Codec ID                         : V_MPEG4/ISO/AVC
Duration                         : 57mn 13s
Bit rate                         : 2 178 Kbps
Width                            : 720 pixels
Height                           : 352 pixels
Display aspect ratio             : 16:9
Original display aspect ratio    : 16:9
Frame rate mode                  : Variable
Frame rate                       : 29.970 fps
Color space                      : YUV
Chroma subsampling               : 4:2:0
Bit depth                        : 8 bits
Scan type                        : Progressive
Bits/(Pixel*Frame)               : 0.287
Stream size                      : 855 MiB (87%)
Writing library                  : x264 core 112
Encoding settings                : cabac=1 / ref=3 / deblock=1:0:0 / analyse=0x3:0x113 / me=hex / subme=7 / psy=1 / psy_rd=1.00:0.00 / mixed_ref=1 / me_range=16 / chroma_me=1 / trellis=1 / 8x8dct=1 / cqm=0 / deadzone=21,11 / fast_pskip=1 / chroma_qp_offset=-2 / threads=6 / sliced_threads=0 / nr=0 / decimate=1 / interlaced=0 / constrained_intra=0 / bframes=3 / b_pyramid=2 / b_adapt=2 / b_bias=0 / direct=1 / weightb=1 / open_gop=0 / weightp=2 / keyint=300 / keyint_min=29 / scenecut=40 / intra_refresh=0 / rc_lookahead=50 / rc=abr / mbtree=1 / bitrate=2178 / ratetol=1.0 / qcomp=0.60 / qpmin=3 / qpmax=51 / qpstep=4 / ip_ratio=1.40 / aq=1:1.00
Language                         : English
Color primaries                  : BT.601-6 525, BT.1358 525, BT.1700 NTSC, SMPTE 170M
Transfer characteristics         : BT.709-5, BT.1361
Matrix coefficients              : BT.601-6 525, BT.1358 525, BT.1700 NTSC, SMPTE 170M

Audio
ID                               : 2
Format                           : AC-3
Format/Info                      : Audio Coding 3
Mode extension                   : CM (complete main)
Codec ID                         : A_AC3
Duration                         : 57mn 13s
Bit rate mode                    : Constant
Bit rate                         : 256 Kbps
Channel(s)                       : 2 channels
Channel positions                : Front: L R
Sampling rate                    : 48.0 KHz
Bit depth                        : 16 bits
Compression mode                 : Lossy
Stream size                      : 105 MiB (11%)
Language                         : English

Menu
00:00:00.000                     : Chapter 1
00:03:55.268                     : Chapter 2
00:05:27.460                     : Chapter 3
00:07:21.324                     : Chapter 4
00:11:20.312                     : Chapter 5
00:14:09.773                     : Chapter 6
00:19:49.521                     : Chapter 7
00:21:34.426                     : Chapter 8
00:23:58.437                     : Chapter 9
00:25:46.044                     : Chapter 10
00:28:08.294                     : Chapter 11
00:31:24.991                     : Chapter 12
00:34:44.607                     : Chapter 13
00:37:10.127                     : Chapter 14
00:41:10.242                     : Chapter 15
00:43:58.035                     : Chapter 16
00:46:58.715                     : Chapter 17
00:50:38.268                     : Chapter 18
00:52:35.594                     : Chapter 19
00:55:30.327                     : Chapter 20





Screenshots:
[img]http://img683.imageshack.us/img683/4839/vlcsnap2012010219h51m41.png[/img]
[img]http://img443.imageshack.us/img443/3234/vlcsnap2012010219h51m46.png[/img]
[img]http://img59.imageshack.us/img59/2292/vlcsnap2012010219h51m49.png[/img]
[img]http://img259.imageshack.us/img259/3734/vlcsnap2012010219h52m45.png[/img]




Note :  

Source: Friend of a friend. 

Enjoy!

Respects to T00NG0D, CM8, Rx, ELEKTRI4KA, PA, YeFsTe, MrRep and everyone in the struggle...